# xmcd CD Database Entry
#
# Track frame offsets:
# 150
# 20602
# 38167
# 63055
# 80837
# 92037
# 123635
# 166937
# 186125
# 210705
# 235497
# 250575
# 278350
# 301187
#
# Disc length: 4271 seconds
#
# Revision: 1
# Processed by: cddbd v1.4b42PL1 Copyright (c) Steve Scherf et al.
# Submitted via: tcd 2.0b
#
DISCID=b410ad0e
DTITLE=Desconhecido - Desconhecido
DYEAR=1900
DGENRE=
TTITLE0=Trilha 1
TTITLE1=Trilha 2
TTITLE2=Trilha 3
TTITLE3=Trilha 4
TTITLE4=Trilha 5
TTITLE5=Trilha 6
TTITLE6=Trilha 7
TTITLE7=Trilha 8
TTITLE8=Trilha 9
TTITLE9=Trilha 10
TTITLE10=Trilha 11
TTITLE11=Trilha 12
TTITLE12=Trilha 13
TTITLE13=Trilha 14
EXTD=
EXTT0=
EXTT1=
EXTT2=
EXTT3=
EXTT4=
EXTT5=
EXTT6=
EXTT7=
EXTT8=
EXTT9=
EXTT10=
EXTT11=
EXTT12=
EXTT13=
PLAYORDER=
